# File created by Blade
# Date/Time:  Fri Jan 16 19:00:24 2015
# Frame Rate: 120.000 fps
#------------------------------------------------------
:FULLY-SPECIFIED
:DEGREES
2858
root 17.416175 35.800220 -22.072036 -179.669980 -4.591468 -177.993344
Spine 0.417354 0.423095 -4.557097
Head 13.293509 -3.711267 7.101894
LeftShoulder -10.886008 -25.957014 12.654132
LeftArm -0.719077 -4.795252 -22.726222
LeftForeArm -3.722554 -0.000000 3.701633
LeftHand -3.391907 0.000000 4.669680
LeftHandThumb1 -26.253704 0.000000 33.147579
RightShoulder -14.136267 -8.092670 4.428306
RightArm 0.525022 46.204336 38.544753
RightForeArm -31.864291 -0.000000 36.144942
RightHand -13.454319 0.000000 -0.771000
RightHandThumb1 -24.326973 -0.000000 -32.862282
LeftUpLeg 2.917094 7.439157 -7.204546
LeftLeg -1.226766 -0.000000 0.000000
LeftFoot -19.275543 20.136050 -11.809722
LeftToeBase 23.755281 -0.000000 -0.000000
RightUpLeg -29.679410 7.394475 8.707244
RightLeg 84.648590 -0.000000 -0.000000
RightFoot 31.967371 -34.517923 -17.998200
RightToeBase 20.056976 -0.000000 -0.000000
2859
root 17.424996 35.808401 -22.053502 -179.957177 -4.966402 -177.986321
Spine 0.821509 0.135454 -4.627885
Head 13.139056 -3.810532 7.296837
LeftShoulder -10.773013 -25.914151 12.640497
LeftArm -0.570913 -4.734488 -22.806207
LeftForeArm -3.752474 -0.000000 3.656153
LeftHand -3.145782 0.000000 4.368470
LeftHandThumb1 -26.253704 0.000000 33.147579
RightShoulder -14.172517 -8.046926 4.507174
RightArm 0.470559 46.352441 38.454491
RightForeArm -31.914880 0.000000 36.063759
RightHand -13.403239 -0.000000 -0.616022
RightHandThumb1 -24.326973 -0.000000 -32.862282
LeftUpLeg 3.154603 7.355542 -7.128371
LeftLeg -1.193079 -0.000000 0.000000
LeftFoot -19.263765 19.906523 -11.894605
LeftToeBase 24.230996 -0.000000 -0.000000
RightUpLeg -30.621486 7.304966 8.732250
RightLeg 85.351482 -0.000000 -0.000000
RightFoot 32.132792 -34.132759 -18.327231
RightToeBase 19.571813 -0.000000 -0.000000
2860
root 17.437287 35.816990 -22.034475 -180.252518 -5.358413 -177.957253
Spine 1.242533 -0.136537 -4.686871
Head 12.987277 -3.893131 7.506779
LeftShoulder -10.609294 -25.869585 12.604374
LeftArm -0.428728 -4.591983 -22.882313
LeftForeArm -3.799935 -0.000000 3.619872
LeftHand -3.115424 -0.000000 4.305699
LeftHandThumb1 -26.253704 0.000000 33.147579
RightShoulder -14.253891 -8.057947 4.577870
RightArm 0.521856 46.485543 38.475046
RightForeArm -31.849955 -0.000000 35.946144
RightHand -13.375369 -0.000000 -0.429169
RightHandThumb1 -24.326973 -0.000000 -32.862282
LeftUpLeg 3.402837 7.257110 -7.026933
LeftLeg -1.181119 -0.000000 0.000000
LeftFoot -19.247025 19.693779 -11.999660
LeftToeBase 24.728955 -0.000000 -0.000000
RightUpLeg -31.561279 7.231311 8.773109
RightLeg 85.996962 -0.000000 -0.000000
RightFoot 31.969700 -34.038441 -18.120848
RightToeBase 20.186197 -0.000000 -0.000000
2861
root 17.448647 35.825630 -22.017391 -180.610972 -5.739105 -177.944755
Spine 1.743510 -0.440210 -4.772824
Head 12.836221 -3.923975 7.701865
LeftShoulder -10.519033 -25.826572 12.601711
LeftArm -0.226081 -4.432899 -22.978875
LeftForeArm -3.897015 -0.000000 3.531638
LeftHand -3.135290 -0.000000 4.191354
LeftHandThumb1 -26.253704 0.000000 33.147579
RightShoulder -14.224146 -8.006955 4.586077
RightArm 0.389583 46.579995 38.451003
RightForeArm -31.701057 -0.000000 35.937611
RightHand -13.354764 -0.000000 -0.227553
RightHandThumb1 -24.326973 -0.000000 -32.862282
LeftUpLeg 3.718308 7.175682 -6.923327
LeftLeg -1.144493 -0.000000 0.000000
LeftFoot -19.184091 19.408397 -12.007268
LeftToeBase 25.058487 -0.000000 -0.000000
RightUpLeg -32.432805 7.115536 8.823840
RightLeg 86.623630 -0.000000 -0.000000
RightFoot 31.903322 -33.992334 -18.142173
RightToeBase 19.835523 -0.000000 -0.000000
2862
root 17.460772 35.835099 -21.999088 -180.848101 -6.105009 -177.912465
Spine 2.081976 -0.660771 -4.836047
Head 12.699905 -4.103578 7.908847
LeftShoulder -10.376125 -25.806590 12.563231
LeftArm -0.016498 -4.267788 -23.070228
LeftForeArm -3.934148 -0.000000 3.454365
LeftHand -3.092880 0.000000 4.254008
LeftHandThumb1 -26.253704 0.000000 33.147579
RightShoulder -14.353467 -8.076616 4.694417
RightArm 0.451644 46.727958 38.454786
RightForeArm -31.762394 -0.000000 35.846825
RightHand -13.276948 -0.000000 -0.357816
RightHandThumb1 -24.326973 -0.000000 -32.862282
LeftUpLeg 3.899446 7.102346 -6.821977
LeftLeg -1.102179 -0.000000 0.000000
LeftFoot -19.220873 19.110822 -12.167021
LeftToeBase 25.623646 -0.000000 -0.000000
RightUpLeg -33.436085 7.065725 8.852505
RightLeg 87.234228 -0.000000 -0.000000
RightFoot 31.757810 -33.921938 -17.976909
RightToeBase 20.675018 -0.000000 -0.000000
2863
root 17.471716 35.845368 -21.981126 -181.067447 -6.494604 -177.868264
Spine 2.409863 -0.905799 -4.878973
Head 12.554152 -4.269611 8.097958
LeftShoulder -10.258328 -25.792422 12.523814
LeftArm 0.200259 -4.100717 -23.171799
LeftForeArm -4.006678 0.000000 3.410535
LeftHand -3.101393 -0.000000 4.162349
LeftHandThumb1 -26.253704 0.000000 33.147579
RightShoulder -14.483772 -8.121679 4.761352
RightArm 0.463725 46.775842 38.450276
RightForeArm -31.655298 -0.000000 35.797961
RightHand -13.320295 -0.000000 -0.268494
RightHandThumb1 -24.326973 -0.000000 -32.862282
LeftUpLeg 4.044847 7.033388 -6.705207
LeftLeg -1.017999 -0.000000 0.000000
LeftFoot -19.229946 18.783165 -12.146279
LeftToeBase 26.336369 -0.000000 -0.000000
RightUpLeg -34.432408 6.970127 8.908618
RightLeg 87.773209 -0.000000 -0.000000
RightFoot 31.841002 -33.998266 -18.207690
RightToeBase 20.694478 -0.000000 -0.000000
2864
root 17.487178 35.855780 -21.961032 -181.375176 -6.843910 -177.837879
Spine 2.856219 -1.164276 -4.964388
Head 12.421473 -4.345140 8.301861
LeftShoulder -10.144169 -25.830364 12.509458
LeftArm 0.355006 -3.925224 -23.231651
LeftForeArm -4.057730 0.000000 3.364832
LeftHand -3.103178 -0.000000 4.089662
LeftHandThumb1 -26.253704 0.000000 33.147579
RightShoulder -14.444789 -8.043419 4.782018
RightArm 0.227621 46.808286 38.316149
RightForeArm -31.493474 -0.000000 35.789282
RightHand -13.391029 0.000000 -0.317832
RightHandThumb1 -24.326973 -0.000000 -32.862282
LeftUpLeg 4.271561 6.991427 -6.584085
LeftLeg -0.924159 -0.000000 0.000000
LeftFoot -19.324811 18.446590 -12.312402
LeftToeBase 27.095182 -0.000000 -0.000000
RightUpLeg -35.363498 6.914674 8.963719
RightLeg 88.329393 -0.000000 -0.000000
RightFoot 31.845474 -34.016956 -18.175432
RightToeBase 20.756186 -0.000000 -0.000000
2865
root 17.501483 35.867341 -21.941842 -181.602612 -7.209694 -177.794269
Spine 3.192614 -1.366193 -5.026245
Head 12.298777 -4.500741 8.484414
LeftShoulder -9.971383 -25.831567 12.446082
LeftArm 0.540972 -3.776589 -23.301750
LeftForeArm -4.068491 -0.000000 3.332779
LeftHand -3.040929 0.000000 3.973580
LeftHandThumb1 -26.253704 0.000000 33.147579
RightShoulder -14.578609 -8.037153 4.804057
RightArm 0.175962 46.838574 38.341376
RightForeArm -31.283869 -0.000000 35.784118
RightHand -13.260226 -0.000000 -0.074452
RightHandThumb1 -24.326973 -0.000000 -32.862282
LeftUpLeg 4.413887 6.932260 -6.462118
LeftLeg -0.834445 -0.000000 0.000000
LeftFoot -19.322037 18.059582 -12.452101
LeftToeBase 27.573859 -0.000000 -0.000000
RightUpLeg -36.359538 6.841144 9.010971
RightLeg 88.855702 -0.000000 -0.000000
RightFoot 31.830447 -34.038357 -18.161644
RightToeBase 20.795189 -0.000000 -0.000000
2866
root 17.519244 35.880719 -21.927920 -181.885602 -7.583755 -177.717491
Spine 3.598338 -1.613845 -5.057626
Head 12.176783 -4.621432 8.658388
LeftShoulder -9.881525 -25.826151 12.405934
LeftArm 0.777280 -3.634661 -23.394879
LeftForeArm -4.097506 -0.000000 3.319113
LeftHand -3.060006 0.000000 3.828094
LeftHandThumb1 -26.253704 0.000000 33.147579
RightShoulder -14.647683 -7.990270 4.834951
RightArm 0.035400 46.924074 38.265851
RightForeArm -31.254662 -0.000000 35.782346
RightHand -13.071657 -0.000000 0.041917
RightHandThumb1 -24.326973 -0.000000 -32.862282
LeftUpLeg 4.615588 6.870780 -6.295926
LeftLeg -0.736888 -0.000000 0.000000
LeftFoot -19.295460 17.670667 -12.499835
LeftToeBase 28.022517 -0.000000 -0.000000
RightUpLeg -37.271171 6.790311 9.103926
RightLeg 89.330573 -0.000000 -0.000000
RightFoot 31.858083 -33.985160 -18.209983
RightToeBase 20.411557 -0.000000 -0.000000
2867
root 17.536516 35.892584 -21.909436 -182.129592 -7.928622 -177.670872
Spine 3.968895 -1.839988 -5.128105
Head 12.040096 -4.771478 8.828056
LeftShoulder -9.767366 -25.880868 12.379773
LeftArm 0.928857 -3.530276 -23.467761
LeftForeArm -4.035794 -0.000000 3.338481
LeftHand -3.072772 -0.000000 3.758378
LeftHandThumb1 -26.253704 0.000000 33.147579
RightShoulder -14.696751 -7.962095 4.868642
RightArm -0.117203 47.067012 38.203317
RightForeArm -31.242144 0.000000 35.836687
RightHand -13.132798 0.000000 0.169294
RightHandThumb1 -24.326973 -0.000000 -32.862282
LeftUpLeg 4.762740 6.794922 -6.173013
LeftLeg -0.618803 -0.000000 0.000000
LeftFoot -19.278658 17.328116 -12.570340
LeftToeBase 28.447271 -0.000000 -0.000000
RightUpLeg -38.219965 6.814515 9.153301
RightLeg 89.818062 -0.000000 -0.000000
RightFoot 32.020540 -33.758060 -18.436331
RightToeBase 20.014697 -0.000000 -0.000000
2868
root 17.556278 35.904871 -21.891408 -182.439536 -8.207656 -177.623794
Spine 4.415089 -2.006211 -5.208709
Head 11.933047 -4.887650 8.992499
LeftShoulder -9.626826 -25.897211 12.332319
LeftArm 1.095665 -3.379019 -23.524974
LeftForeArm -4.077084 -0.000000 3.323084
LeftHand -3.059611 -0.000000 3.895669
LeftHandThumb1 -26.253704 0.000000 33.147579
RightShoulder -14.734286 -7.963900 4.930312
RightArm -0.184775 47.229030 38.132646
RightForeArm -31.300095 -0.000000 35.723908
RightHand -13.299665 -0.000000 -0.163632
RightHandThumb1 -24.326973 -0.000000 -32.862282
LeftUpLeg 4.974156 6.720011 -6.044984
LeftLeg -0.500369 -0.000000 0.000000
LeftFoot -19.287101 17.078838 -12.687077
LeftToeBase 29.054209 -0.000000 -0.000000
RightUpLeg -39.116031 6.891639 9.218357
RightLeg 90.289187 -0.000000 -0.000000
RightFoot 31.698678 -33.798835 -18.155357
RightToeBase 20.599290 -0.000000 -0.000000
